<mxfile host="app.diagrams.net" modified="2021-01-14T05:19:25.430Z" agent="5.0 (Windows NT 10.0; Win64; x64) AppleWebKit/537.36 (KHTML, like Gecko) Chrome/87.0.4280.141 Safari/537.36" etag="vanV938n43dBrVctQuZe" version="14.1.8" type="github">
  <diagram id="Gl93f9inWYHc_loIVmSG" name="Page-1">
    <mxGraphModel dx="2844" dy="2693" grid="1" gridSize="10" guides="1" tooltips="1" connect="1" arrows="1" fold="1" page="1" pageScale="1" pageWidth="827" pageHeight="1169" math="0" shadow="0">
      <root>
        <mxCell id="0" />
        <mxCell id="1" parent="0" />
        <mxCell id="IVsyOkYPATL-U6N8hX0K-6" style="edgeStyle=orthogonalEdgeStyle;rounded=0;orthogonalLoop=1;jettySize=auto;html=1;entryX=0;entryY=0.5;entryDx=0;entryDy=0;" edge="1" parent="1" source="IVsyOkYPATL-U6N8hX0K-1" target="IVsyOkYPATL-U6N8hX0K-3">
          <mxGeometry relative="1" as="geometry" />
        </mxCell>
        <mxCell id="IVsyOkYPATL-U6N8hX0K-7" style="edgeStyle=orthogonalEdgeStyle;rounded=0;orthogonalLoop=1;jettySize=auto;html=1;entryX=0;entryY=0.5;entryDx=0;entryDy=0;" edge="1" parent="1" source="IVsyOkYPATL-U6N8hX0K-1" target="IVsyOkYPATL-U6N8hX0K-4">
          <mxGeometry relative="1" as="geometry">
            <Array as="points">
              <mxPoint x="70" y="405" />
            </Array>
          </mxGeometry>
        </mxCell>
        <mxCell id="IVsyOkYPATL-U6N8hX0K-8" style="edgeStyle=orthogonalEdgeStyle;rounded=0;orthogonalLoop=1;jettySize=auto;html=1;entryX=0;entryY=0.75;entryDx=0;entryDy=0;" edge="1" parent="1" source="IVsyOkYPATL-U6N8hX0K-1" target="IVsyOkYPATL-U6N8hX0K-2">
          <mxGeometry relative="1" as="geometry">
            <Array as="points">
              <mxPoint x="70" y="578" />
            </Array>
          </mxGeometry>
        </mxCell>
        <mxCell id="IVsyOkYPATL-U6N8hX0K-1" value="&lt;b&gt;&lt;font style=&quot;font-size: 20px&quot;&gt;开始&lt;/font&gt;&lt;/b&gt;" style="rounded=1;whiteSpace=wrap;html=1;" vertex="1" parent="1">
          <mxGeometry x="30" y="465" width="80" height="40" as="geometry" />
        </mxCell>
        <mxCell id="IVsyOkYPATL-U6N8hX0K-126" style="edgeStyle=orthogonalEdgeStyle;rounded=0;orthogonalLoop=1;jettySize=auto;html=1;entryX=0;entryY=0.5;entryDx=0;entryDy=0;" edge="1" parent="1" source="IVsyOkYPATL-U6N8hX0K-2" target="IVsyOkYPATL-U6N8hX0K-34">
          <mxGeometry relative="1" as="geometry" />
        </mxCell>
        <mxCell id="IVsyOkYPATL-U6N8hX0K-2" value="&lt;b&gt;&lt;font style=&quot;font-size: 20px&quot;&gt;用户名有效&lt;/font&gt;&lt;/b&gt;" style="rounded=1;whiteSpace=wrap;html=1;" vertex="1" parent="1">
          <mxGeometry x="150" y="540" width="120" height="50" as="geometry" />
        </mxCell>
        <mxCell id="IVsyOkYPATL-U6N8hX0K-125" style="edgeStyle=orthogonalEdgeStyle;rounded=0;orthogonalLoop=1;jettySize=auto;html=1;entryX=0;entryY=0.5;entryDx=0;entryDy=0;" edge="1" parent="1" source="IVsyOkYPATL-U6N8hX0K-3" target="IVsyOkYPATL-U6N8hX0K-25">
          <mxGeometry relative="1" as="geometry" />
        </mxCell>
        <mxCell id="IVsyOkYPATL-U6N8hX0K-3" value="&lt;b&gt;&lt;font style=&quot;font-size: 20px&quot;&gt;用户名已存在&lt;/font&gt;&lt;/b&gt;" style="rounded=1;whiteSpace=wrap;html=1;" vertex="1" parent="1">
          <mxGeometry x="150" y="460" width="130" height="50" as="geometry" />
        </mxCell>
        <mxCell id="IVsyOkYPATL-U6N8hX0K-124" style="edgeStyle=orthogonalEdgeStyle;rounded=0;orthogonalLoop=1;jettySize=auto;html=1;entryX=0;entryY=0.5;entryDx=0;entryDy=0;" edge="1" parent="1" source="IVsyOkYPATL-U6N8hX0K-4" target="IVsyOkYPATL-U6N8hX0K-10">
          <mxGeometry relative="1" as="geometry" />
        </mxCell>
        <mxCell id="IVsyOkYPATL-U6N8hX0K-4" value="&lt;b&gt;&lt;font style=&quot;font-size: 20px&quot;&gt;用户名为空&lt;/font&gt;&lt;/b&gt;" style="rounded=1;whiteSpace=wrap;html=1;" vertex="1" parent="1">
          <mxGeometry x="150" y="380" width="120" height="50" as="geometry" />
        </mxCell>
        <mxCell id="IVsyOkYPATL-U6N8hX0K-17" style="edgeStyle=orthogonalEdgeStyle;rounded=0;orthogonalLoop=1;jettySize=auto;html=1;entryX=0;entryY=0.75;entryDx=0;entryDy=0;" edge="1" parent="1" source="IVsyOkYPATL-U6N8hX0K-10" target="IVsyOkYPATL-U6N8hX0K-13">
          <mxGeometry relative="1" as="geometry" />
        </mxCell>
        <mxCell id="IVsyOkYPATL-U6N8hX0K-18" style="edgeStyle=orthogonalEdgeStyle;rounded=0;orthogonalLoop=1;jettySize=auto;html=1;entryX=0;entryY=0.5;entryDx=0;entryDy=0;" edge="1" parent="1" source="IVsyOkYPATL-U6N8hX0K-10" target="IVsyOkYPATL-U6N8hX0K-11">
          <mxGeometry relative="1" as="geometry">
            <Array as="points">
              <mxPoint x="390" y="305" />
            </Array>
          </mxGeometry>
        </mxCell>
        <mxCell id="IVsyOkYPATL-U6N8hX0K-19" style="edgeStyle=orthogonalEdgeStyle;rounded=0;orthogonalLoop=1;jettySize=auto;html=1;entryX=0;entryY=0.5;entryDx=0;entryDy=0;" edge="1" parent="1" source="IVsyOkYPATL-U6N8hX0K-10" target="IVsyOkYPATL-U6N8hX0K-12">
          <mxGeometry relative="1" as="geometry" />
        </mxCell>
        <mxCell id="IVsyOkYPATL-U6N8hX0K-20" style="edgeStyle=orthogonalEdgeStyle;rounded=0;orthogonalLoop=1;jettySize=auto;html=1;entryX=0;entryY=0.5;entryDx=0;entryDy=0;" edge="1" parent="1" source="IVsyOkYPATL-U6N8hX0K-10" target="IVsyOkYPATL-U6N8hX0K-14">
          <mxGeometry relative="1" as="geometry">
            <Array as="points">
              <mxPoint x="390" y="95" />
            </Array>
          </mxGeometry>
        </mxCell>
        <mxCell id="IVsyOkYPATL-U6N8hX0K-10" value="&lt;span style=&quot;font-size: 20px&quot;&gt;&lt;b&gt;用户名为空&lt;/b&gt;&lt;/span&gt;" style="rounded=1;whiteSpace=wrap;html=1;" vertex="1" parent="1">
          <mxGeometry x="340" y="180" width="120" height="50" as="geometry" />
        </mxCell>
        <mxCell id="IVsyOkYPATL-U6N8hX0K-235" style="edgeStyle=orthogonalEdgeStyle;rounded=0;orthogonalLoop=1;jettySize=auto;html=1;entryX=0;entryY=0.5;entryDx=0;entryDy=0;" edge="1" parent="1" source="IVsyOkYPATL-U6N8hX0K-11" target="IVsyOkYPATL-U6N8hX0K-70">
          <mxGeometry relative="1" as="geometry" />
        </mxCell>
        <mxCell id="IVsyOkYPATL-U6N8hX0K-11" value="&lt;b&gt;&lt;font style=&quot;font-size: 20px&quot;&gt;邮箱有效&lt;/font&gt;&lt;/b&gt;" style="rounded=1;whiteSpace=wrap;html=1;" vertex="1" parent="1">
          <mxGeometry x="510" y="280" width="120" height="50" as="geometry" />
        </mxCell>
        <mxCell id="IVsyOkYPATL-U6N8hX0K-234" style="edgeStyle=orthogonalEdgeStyle;rounded=0;orthogonalLoop=1;jettySize=auto;html=1;entryX=0;entryY=0.5;entryDx=0;entryDy=0;" edge="1" parent="1" source="IVsyOkYPATL-U6N8hX0K-12" target="IVsyOkYPATL-U6N8hX0K-63">
          <mxGeometry relative="1" as="geometry">
            <Array as="points">
              <mxPoint x="760" y="235" />
              <mxPoint x="760" y="275" />
            </Array>
          </mxGeometry>
        </mxCell>
        <mxCell id="IVsyOkYPATL-U6N8hX0K-12" value="&lt;b&gt;&lt;font style=&quot;font-size: 20px&quot;&gt;邮箱无效&lt;/font&gt;&lt;/b&gt;" style="rounded=1;whiteSpace=wrap;html=1;" vertex="1" parent="1">
          <mxGeometry x="510" y="210" width="120" height="50" as="geometry" />
        </mxCell>
        <mxCell id="IVsyOkYPATL-U6N8hX0K-233" style="edgeStyle=orthogonalEdgeStyle;rounded=0;orthogonalLoop=1;jettySize=auto;html=1;entryX=0;entryY=0.5;entryDx=0;entryDy=0;" edge="1" parent="1" source="IVsyOkYPATL-U6N8hX0K-13" target="IVsyOkYPATL-U6N8hX0K-56">
          <mxGeometry relative="1" as="geometry">
            <Array as="points">
              <mxPoint x="760" y="165" />
              <mxPoint x="760" y="45" />
            </Array>
          </mxGeometry>
        </mxCell>
        <mxCell id="IVsyOkYPATL-U6N8hX0K-13" value="&lt;b&gt;&lt;font style=&quot;font-size: 20px&quot;&gt;邮箱已存在&lt;/font&gt;&lt;/b&gt;" style="rounded=1;whiteSpace=wrap;html=1;" vertex="1" parent="1">
          <mxGeometry x="510" y="140" width="120" height="50" as="geometry" />
        </mxCell>
        <mxCell id="IVsyOkYPATL-U6N8hX0K-232" style="edgeStyle=orthogonalEdgeStyle;rounded=0;orthogonalLoop=1;jettySize=auto;html=1;entryX=0;entryY=0.5;entryDx=0;entryDy=0;" edge="1" parent="1" source="IVsyOkYPATL-U6N8hX0K-14" target="IVsyOkYPATL-U6N8hX0K-48">
          <mxGeometry relative="1" as="geometry" />
        </mxCell>
        <mxCell id="IVsyOkYPATL-U6N8hX0K-14" value="&lt;b&gt;&lt;font style=&quot;font-size: 20px&quot;&gt;邮箱为空&lt;/font&gt;&lt;/b&gt;" style="rounded=1;whiteSpace=wrap;html=1;" vertex="1" parent="1">
          <mxGeometry x="510" y="70" width="120" height="50" as="geometry" />
        </mxCell>
        <mxCell id="IVsyOkYPATL-U6N8hX0K-21" style="edgeStyle=orthogonalEdgeStyle;rounded=0;orthogonalLoop=1;jettySize=auto;html=1;entryX=0;entryY=0.75;entryDx=0;entryDy=0;" edge="1" parent="1" source="IVsyOkYPATL-U6N8hX0K-25" target="IVsyOkYPATL-U6N8hX0K-28">
          <mxGeometry relative="1" as="geometry" />
        </mxCell>
        <mxCell id="IVsyOkYPATL-U6N8hX0K-22" style="edgeStyle=orthogonalEdgeStyle;rounded=0;orthogonalLoop=1;jettySize=auto;html=1;entryX=0;entryY=0.5;entryDx=0;entryDy=0;" edge="1" parent="1" source="IVsyOkYPATL-U6N8hX0K-25" target="IVsyOkYPATL-U6N8hX0K-26">
          <mxGeometry relative="1" as="geometry">
            <Array as="points">
              <mxPoint x="390" y="585" />
            </Array>
          </mxGeometry>
        </mxCell>
        <mxCell id="IVsyOkYPATL-U6N8hX0K-23" style="edgeStyle=orthogonalEdgeStyle;rounded=0;orthogonalLoop=1;jettySize=auto;html=1;entryX=0;entryY=0.5;entryDx=0;entryDy=0;" edge="1" parent="1" source="IVsyOkYPATL-U6N8hX0K-25" target="IVsyOkYPATL-U6N8hX0K-27">
          <mxGeometry relative="1" as="geometry" />
        </mxCell>
        <mxCell id="IVsyOkYPATL-U6N8hX0K-24" style="edgeStyle=orthogonalEdgeStyle;rounded=0;orthogonalLoop=1;jettySize=auto;html=1;entryX=0;entryY=0.5;entryDx=0;entryDy=0;" edge="1" parent="1" source="IVsyOkYPATL-U6N8hX0K-25" target="IVsyOkYPATL-U6N8hX0K-29">
          <mxGeometry relative="1" as="geometry">
            <Array as="points">
              <mxPoint x="390" y="375" />
            </Array>
          </mxGeometry>
        </mxCell>
        <mxCell id="IVsyOkYPATL-U6N8hX0K-25" value="&lt;span style=&quot;font-size: 20px&quot;&gt;&lt;b&gt;用户名已存在&lt;/b&gt;&lt;/span&gt;" style="rounded=1;whiteSpace=wrap;html=1;" vertex="1" parent="1">
          <mxGeometry x="330" y="460" width="130" height="50" as="geometry" />
        </mxCell>
        <mxCell id="IVsyOkYPATL-U6N8hX0K-26" value="&lt;b&gt;&lt;font style=&quot;font-size: 20px&quot;&gt;邮箱有效&lt;/font&gt;&lt;/b&gt;" style="rounded=1;whiteSpace=wrap;html=1;" vertex="1" parent="1">
          <mxGeometry x="510" y="560" width="120" height="50" as="geometry" />
        </mxCell>
        <mxCell id="IVsyOkYPATL-U6N8hX0K-27" value="&lt;b&gt;&lt;font style=&quot;font-size: 20px&quot;&gt;邮箱无效&lt;/font&gt;&lt;/b&gt;" style="rounded=1;whiteSpace=wrap;html=1;" vertex="1" parent="1">
          <mxGeometry x="510" y="490" width="120" height="50" as="geometry" />
        </mxCell>
        <mxCell id="IVsyOkYPATL-U6N8hX0K-28" value="&lt;b&gt;&lt;font style=&quot;font-size: 20px&quot;&gt;邮箱已存在&lt;/font&gt;&lt;/b&gt;" style="rounded=1;whiteSpace=wrap;html=1;" vertex="1" parent="1">
          <mxGeometry x="510" y="420" width="120" height="50" as="geometry" />
        </mxCell>
        <mxCell id="IVsyOkYPATL-U6N8hX0K-29" value="&lt;b&gt;&lt;font style=&quot;font-size: 20px&quot;&gt;邮箱为空&lt;/font&gt;&lt;/b&gt;" style="rounded=1;whiteSpace=wrap;html=1;" vertex="1" parent="1">
          <mxGeometry x="510" y="350" width="120" height="50" as="geometry" />
        </mxCell>
        <mxCell id="IVsyOkYPATL-U6N8hX0K-30" style="edgeStyle=orthogonalEdgeStyle;rounded=0;orthogonalLoop=1;jettySize=auto;html=1;entryX=0;entryY=0.75;entryDx=0;entryDy=0;" edge="1" parent="1" source="IVsyOkYPATL-U6N8hX0K-34" target="IVsyOkYPATL-U6N8hX0K-37">
          <mxGeometry relative="1" as="geometry" />
        </mxCell>
        <mxCell id="IVsyOkYPATL-U6N8hX0K-31" style="edgeStyle=orthogonalEdgeStyle;rounded=0;orthogonalLoop=1;jettySize=auto;html=1;entryX=0;entryY=0.5;entryDx=0;entryDy=0;" edge="1" parent="1" source="IVsyOkYPATL-U6N8hX0K-34" target="IVsyOkYPATL-U6N8hX0K-35">
          <mxGeometry relative="1" as="geometry">
            <Array as="points">
              <mxPoint x="390" y="865" />
            </Array>
          </mxGeometry>
        </mxCell>
        <mxCell id="IVsyOkYPATL-U6N8hX0K-32" style="edgeStyle=orthogonalEdgeStyle;rounded=0;orthogonalLoop=1;jettySize=auto;html=1;entryX=0;entryY=0.5;entryDx=0;entryDy=0;" edge="1" parent="1" source="IVsyOkYPATL-U6N8hX0K-34" target="IVsyOkYPATL-U6N8hX0K-36">
          <mxGeometry relative="1" as="geometry" />
        </mxCell>
        <mxCell id="IVsyOkYPATL-U6N8hX0K-33" style="edgeStyle=orthogonalEdgeStyle;rounded=0;orthogonalLoop=1;jettySize=auto;html=1;entryX=0;entryY=0.5;entryDx=0;entryDy=0;" edge="1" parent="1" source="IVsyOkYPATL-U6N8hX0K-34" target="IVsyOkYPATL-U6N8hX0K-38">
          <mxGeometry relative="1" as="geometry">
            <Array as="points">
              <mxPoint x="390" y="655" />
            </Array>
          </mxGeometry>
        </mxCell>
        <mxCell id="IVsyOkYPATL-U6N8hX0K-34" value="&lt;span style=&quot;font-size: 20px&quot;&gt;&lt;b&gt;用户名有效&lt;/b&gt;&lt;/span&gt;" style="rounded=1;whiteSpace=wrap;html=1;" vertex="1" parent="1">
          <mxGeometry x="340" y="740" width="120" height="50" as="geometry" />
        </mxCell>
        <mxCell id="IVsyOkYPATL-U6N8hX0K-35" value="&lt;b&gt;&lt;font style=&quot;font-size: 20px&quot;&gt;邮箱有效&lt;/font&gt;&lt;/b&gt;" style="rounded=1;whiteSpace=wrap;html=1;" vertex="1" parent="1">
          <mxGeometry x="510" y="840" width="120" height="50" as="geometry" />
        </mxCell>
        <mxCell id="IVsyOkYPATL-U6N8hX0K-36" value="&lt;b&gt;&lt;font style=&quot;font-size: 20px&quot;&gt;邮箱无效&lt;/font&gt;&lt;/b&gt;" style="rounded=1;whiteSpace=wrap;html=1;" vertex="1" parent="1">
          <mxGeometry x="510" y="770" width="120" height="50" as="geometry" />
        </mxCell>
        <mxCell id="IVsyOkYPATL-U6N8hX0K-37" value="&lt;b&gt;&lt;font style=&quot;font-size: 20px&quot;&gt;邮箱已存在&lt;/font&gt;&lt;/b&gt;" style="rounded=1;whiteSpace=wrap;html=1;" vertex="1" parent="1">
          <mxGeometry x="510" y="700" width="120" height="50" as="geometry" />
        </mxCell>
        <mxCell id="IVsyOkYPATL-U6N8hX0K-38" value="&lt;b&gt;&lt;font style=&quot;font-size: 20px&quot;&gt;邮箱为空&lt;/font&gt;&lt;/b&gt;" style="rounded=1;whiteSpace=wrap;html=1;" vertex="1" parent="1">
          <mxGeometry x="510" y="630" width="120" height="50" as="geometry" />
        </mxCell>
        <mxCell id="IVsyOkYPATL-U6N8hX0K-45" style="edgeStyle=orthogonalEdgeStyle;rounded=0;orthogonalLoop=1;jettySize=auto;html=1;entryX=0;entryY=0.5;entryDx=0;entryDy=0;" edge="1" parent="1" source="IVsyOkYPATL-U6N8hX0K-48" target="IVsyOkYPATL-U6N8hX0K-50">
          <mxGeometry relative="1" as="geometry" />
        </mxCell>
        <mxCell id="IVsyOkYPATL-U6N8hX0K-46" style="edgeStyle=orthogonalEdgeStyle;rounded=0;orthogonalLoop=1;jettySize=auto;html=1;entryX=0;entryY=0.5;entryDx=0;entryDy=0;" edge="1" parent="1" source="IVsyOkYPATL-U6N8hX0K-48" target="IVsyOkYPATL-U6N8hX0K-51">
          <mxGeometry relative="1" as="geometry">
            <Array as="points">
              <mxPoint x="860" y="-265" />
            </Array>
          </mxGeometry>
        </mxCell>
        <mxCell id="IVsyOkYPATL-U6N8hX0K-47" style="edgeStyle=orthogonalEdgeStyle;rounded=0;orthogonalLoop=1;jettySize=auto;html=1;entryX=0;entryY=0.75;entryDx=0;entryDy=0;" edge="1" parent="1" source="IVsyOkYPATL-U6N8hX0K-48" target="IVsyOkYPATL-U6N8hX0K-49">
          <mxGeometry relative="1" as="geometry">
            <Array as="points">
              <mxPoint x="860" y="-92" />
            </Array>
          </mxGeometry>
        </mxCell>
        <mxCell id="IVsyOkYPATL-U6N8hX0K-48" value="&lt;b&gt;&lt;font style=&quot;font-size: 20px&quot;&gt;邮箱为空&lt;/font&gt;&lt;/b&gt;" style="rounded=1;whiteSpace=wrap;html=1;" vertex="1" parent="1">
          <mxGeometry x="800" y="-205" width="100" height="40" as="geometry" />
        </mxCell>
        <mxCell id="IVsyOkYPATL-U6N8hX0K-238" style="edgeStyle=orthogonalEdgeStyle;rounded=0;orthogonalLoop=1;jettySize=auto;html=1;entryX=0;entryY=0.5;entryDx=0;entryDy=0;" edge="1" parent="1" source="IVsyOkYPATL-U6N8hX0K-49" target="IVsyOkYPATL-U6N8hX0K-113">
          <mxGeometry relative="1" as="geometry" />
        </mxCell>
        <mxCell id="IVsyOkYPATL-U6N8hX0K-49" value="&lt;b&gt;&lt;font style=&quot;font-size: 20px&quot;&gt;验证码有效&lt;/font&gt;&lt;/b&gt;" style="rounded=1;whiteSpace=wrap;html=1;" vertex="1" parent="1">
          <mxGeometry x="940" y="-130" width="120" height="50" as="geometry" />
        </mxCell>
        <mxCell id="IVsyOkYPATL-U6N8hX0K-240" style="edgeStyle=orthogonalEdgeStyle;rounded=0;orthogonalLoop=1;jettySize=auto;html=1;entryX=0;entryY=0.5;entryDx=0;entryDy=0;" edge="1" parent="1" source="IVsyOkYPATL-U6N8hX0K-50" target="IVsyOkYPATL-U6N8hX0K-106">
          <mxGeometry relative="1" as="geometry" />
        </mxCell>
        <mxCell id="IVsyOkYPATL-U6N8hX0K-50" value="&lt;span style=&quot;font-size: 20px&quot;&gt;&lt;b&gt;验证码错误&lt;/b&gt;&lt;/span&gt;" style="rounded=1;whiteSpace=wrap;html=1;" vertex="1" parent="1">
          <mxGeometry x="940" y="-210" width="130" height="50" as="geometry" />
        </mxCell>
        <mxCell id="IVsyOkYPATL-U6N8hX0K-237" style="edgeStyle=orthogonalEdgeStyle;rounded=0;orthogonalLoop=1;jettySize=auto;html=1;entryX=0;entryY=0.5;entryDx=0;entryDy=0;" edge="1" parent="1" source="IVsyOkYPATL-U6N8hX0K-51" target="IVsyOkYPATL-U6N8hX0K-77">
          <mxGeometry relative="1" as="geometry">
            <Array as="points">
              <mxPoint x="1000" y="-510" />
            </Array>
          </mxGeometry>
        </mxCell>
        <mxCell id="IVsyOkYPATL-U6N8hX0K-51" value="&lt;span style=&quot;font-size: 20px&quot;&gt;&lt;b&gt;验证码为空&lt;/b&gt;&lt;/span&gt;" style="rounded=1;whiteSpace=wrap;html=1;" vertex="1" parent="1">
          <mxGeometry x="940" y="-290" width="120" height="50" as="geometry" />
        </mxCell>
        <mxCell id="IVsyOkYPATL-U6N8hX0K-53" style="edgeStyle=orthogonalEdgeStyle;rounded=0;orthogonalLoop=1;jettySize=auto;html=1;entryX=0;entryY=0.5;entryDx=0;entryDy=0;" edge="1" parent="1" source="IVsyOkYPATL-U6N8hX0K-56" target="IVsyOkYPATL-U6N8hX0K-58">
          <mxGeometry relative="1" as="geometry" />
        </mxCell>
        <mxCell id="IVsyOkYPATL-U6N8hX0K-54" style="edgeStyle=orthogonalEdgeStyle;rounded=0;orthogonalLoop=1;jettySize=auto;html=1;entryX=0;entryY=0.5;entryDx=0;entryDy=0;" edge="1" parent="1" source="IVsyOkYPATL-U6N8hX0K-56" target="IVsyOkYPATL-U6N8hX0K-59">
          <mxGeometry relative="1" as="geometry">
            <Array as="points">
              <mxPoint x="860" y="-35" />
            </Array>
          </mxGeometry>
        </mxCell>
        <mxCell id="IVsyOkYPATL-U6N8hX0K-55" style="edgeStyle=orthogonalEdgeStyle;rounded=0;orthogonalLoop=1;jettySize=auto;html=1;entryX=0;entryY=0.75;entryDx=0;entryDy=0;" edge="1" parent="1" source="IVsyOkYPATL-U6N8hX0K-56" target="IVsyOkYPATL-U6N8hX0K-57">
          <mxGeometry relative="1" as="geometry">
            <Array as="points">
              <mxPoint x="860" y="138" />
            </Array>
          </mxGeometry>
        </mxCell>
        <mxCell id="IVsyOkYPATL-U6N8hX0K-56" value="&lt;b&gt;&lt;font style=&quot;font-size: 20px&quot;&gt;邮箱已存在&lt;/font&gt;&lt;/b&gt;" style="rounded=1;whiteSpace=wrap;html=1;" vertex="1" parent="1">
          <mxGeometry x="780" y="25" width="120" height="40" as="geometry" />
        </mxCell>
        <mxCell id="IVsyOkYPATL-U6N8hX0K-57" value="&lt;b&gt;&lt;font style=&quot;font-size: 20px&quot;&gt;验证码有效&lt;/font&gt;&lt;/b&gt;" style="rounded=1;whiteSpace=wrap;html=1;" vertex="1" parent="1">
          <mxGeometry x="940" y="100" width="120" height="50" as="geometry" />
        </mxCell>
        <mxCell id="IVsyOkYPATL-U6N8hX0K-58" value="&lt;span style=&quot;font-size: 20px&quot;&gt;&lt;b&gt;验证码错误&lt;/b&gt;&lt;/span&gt;" style="rounded=1;whiteSpace=wrap;html=1;" vertex="1" parent="1">
          <mxGeometry x="940" y="20" width="130" height="50" as="geometry" />
        </mxCell>
        <mxCell id="IVsyOkYPATL-U6N8hX0K-59" value="&lt;span style=&quot;font-size: 20px&quot;&gt;&lt;b&gt;验证码为空&lt;/b&gt;&lt;/span&gt;" style="rounded=1;whiteSpace=wrap;html=1;" vertex="1" parent="1">
          <mxGeometry x="940" y="-60" width="120" height="50" as="geometry" />
        </mxCell>
        <mxCell id="IVsyOkYPATL-U6N8hX0K-60" style="edgeStyle=orthogonalEdgeStyle;rounded=0;orthogonalLoop=1;jettySize=auto;html=1;entryX=0;entryY=0.5;entryDx=0;entryDy=0;" edge="1" parent="1" source="IVsyOkYPATL-U6N8hX0K-63" target="IVsyOkYPATL-U6N8hX0K-65">
          <mxGeometry relative="1" as="geometry" />
        </mxCell>
        <mxCell id="IVsyOkYPATL-U6N8hX0K-61" style="edgeStyle=orthogonalEdgeStyle;rounded=0;orthogonalLoop=1;jettySize=auto;html=1;entryX=0;entryY=0.5;entryDx=0;entryDy=0;" edge="1" parent="1" source="IVsyOkYPATL-U6N8hX0K-63" target="IVsyOkYPATL-U6N8hX0K-66">
          <mxGeometry relative="1" as="geometry">
            <Array as="points">
              <mxPoint x="860" y="195" />
            </Array>
          </mxGeometry>
        </mxCell>
        <mxCell id="IVsyOkYPATL-U6N8hX0K-62" style="edgeStyle=orthogonalEdgeStyle;rounded=0;orthogonalLoop=1;jettySize=auto;html=1;entryX=0;entryY=0.75;entryDx=0;entryDy=0;" edge="1" parent="1" source="IVsyOkYPATL-U6N8hX0K-63" target="IVsyOkYPATL-U6N8hX0K-64">
          <mxGeometry relative="1" as="geometry">
            <Array as="points">
              <mxPoint x="860" y="368" />
            </Array>
          </mxGeometry>
        </mxCell>
        <mxCell id="IVsyOkYPATL-U6N8hX0K-63" value="&lt;b&gt;&lt;font style=&quot;font-size: 20px&quot;&gt;邮箱无效&lt;/font&gt;&lt;/b&gt;" style="rounded=1;whiteSpace=wrap;html=1;" vertex="1" parent="1">
          <mxGeometry x="800" y="255" width="100" height="40" as="geometry" />
        </mxCell>
        <mxCell id="IVsyOkYPATL-U6N8hX0K-64" value="&lt;b&gt;&lt;font style=&quot;font-size: 20px&quot;&gt;验证码有效&lt;/font&gt;&lt;/b&gt;" style="rounded=1;whiteSpace=wrap;html=1;" vertex="1" parent="1">
          <mxGeometry x="940" y="330" width="120" height="50" as="geometry" />
        </mxCell>
        <mxCell id="IVsyOkYPATL-U6N8hX0K-65" value="&lt;span style=&quot;font-size: 20px&quot;&gt;&lt;b&gt;验证码错误&lt;/b&gt;&lt;/span&gt;" style="rounded=1;whiteSpace=wrap;html=1;" vertex="1" parent="1">
          <mxGeometry x="940" y="250" width="130" height="50" as="geometry" />
        </mxCell>
        <mxCell id="IVsyOkYPATL-U6N8hX0K-66" value="&lt;span style=&quot;font-size: 20px&quot;&gt;&lt;b&gt;验证码为空&lt;/b&gt;&lt;/span&gt;" style="rounded=1;whiteSpace=wrap;html=1;" vertex="1" parent="1">
          <mxGeometry x="940" y="170" width="120" height="50" as="geometry" />
        </mxCell>
        <mxCell id="IVsyOkYPATL-U6N8hX0K-67" style="edgeStyle=orthogonalEdgeStyle;rounded=0;orthogonalLoop=1;jettySize=auto;html=1;entryX=0;entryY=0.5;entryDx=0;entryDy=0;" edge="1" parent="1" source="IVsyOkYPATL-U6N8hX0K-70" target="IVsyOkYPATL-U6N8hX0K-72">
          <mxGeometry relative="1" as="geometry" />
        </mxCell>
        <mxCell id="IVsyOkYPATL-U6N8hX0K-68" style="edgeStyle=orthogonalEdgeStyle;rounded=0;orthogonalLoop=1;jettySize=auto;html=1;entryX=0;entryY=0.5;entryDx=0;entryDy=0;" edge="1" parent="1" source="IVsyOkYPATL-U6N8hX0K-70" target="IVsyOkYPATL-U6N8hX0K-73">
          <mxGeometry relative="1" as="geometry">
            <Array as="points">
              <mxPoint x="860" y="425" />
            </Array>
          </mxGeometry>
        </mxCell>
        <mxCell id="IVsyOkYPATL-U6N8hX0K-69" style="edgeStyle=orthogonalEdgeStyle;rounded=0;orthogonalLoop=1;jettySize=auto;html=1;entryX=0;entryY=0.75;entryDx=0;entryDy=0;" edge="1" parent="1" source="IVsyOkYPATL-U6N8hX0K-70" target="IVsyOkYPATL-U6N8hX0K-71">
          <mxGeometry relative="1" as="geometry">
            <Array as="points">
              <mxPoint x="860" y="598" />
            </Array>
          </mxGeometry>
        </mxCell>
        <mxCell id="IVsyOkYPATL-U6N8hX0K-70" value="&lt;b&gt;&lt;font style=&quot;font-size: 20px&quot;&gt;邮箱有效&lt;/font&gt;&lt;/b&gt;" style="rounded=1;whiteSpace=wrap;html=1;" vertex="1" parent="1">
          <mxGeometry x="800" y="485" width="100" height="40" as="geometry" />
        </mxCell>
        <mxCell id="IVsyOkYPATL-U6N8hX0K-71" value="&lt;b&gt;&lt;font style=&quot;font-size: 20px&quot;&gt;验证码有效&lt;/font&gt;&lt;/b&gt;" style="rounded=1;whiteSpace=wrap;html=1;" vertex="1" parent="1">
          <mxGeometry x="940" y="560" width="120" height="50" as="geometry" />
        </mxCell>
        <mxCell id="IVsyOkYPATL-U6N8hX0K-72" value="&lt;span style=&quot;font-size: 20px&quot;&gt;&lt;b&gt;验证码错误&lt;/b&gt;&lt;/span&gt;" style="rounded=1;whiteSpace=wrap;html=1;" vertex="1" parent="1">
          <mxGeometry x="940" y="480" width="130" height="50" as="geometry" />
        </mxCell>
        <mxCell id="IVsyOkYPATL-U6N8hX0K-73" value="&lt;span style=&quot;font-size: 20px&quot;&gt;&lt;b&gt;验证码为空&lt;/b&gt;&lt;/span&gt;" style="rounded=1;whiteSpace=wrap;html=1;" vertex="1" parent="1">
          <mxGeometry x="940" y="400" width="120" height="50" as="geometry" />
        </mxCell>
        <mxCell id="IVsyOkYPATL-U6N8hX0K-74" style="edgeStyle=orthogonalEdgeStyle;rounded=0;orthogonalLoop=1;jettySize=auto;html=1;entryX=0;entryY=0.5;entryDx=0;entryDy=0;" edge="1" parent="1" source="IVsyOkYPATL-U6N8hX0K-77" target="IVsyOkYPATL-U6N8hX0K-79">
          <mxGeometry relative="1" as="geometry" />
        </mxCell>
        <mxCell id="IVsyOkYPATL-U6N8hX0K-75" style="edgeStyle=orthogonalEdgeStyle;rounded=0;orthogonalLoop=1;jettySize=auto;html=1;entryX=0;entryY=0.5;entryDx=0;entryDy=0;" edge="1" parent="1" source="IVsyOkYPATL-U6N8hX0K-77" target="IVsyOkYPATL-U6N8hX0K-80">
          <mxGeometry relative="1" as="geometry">
            <Array as="points">
              <mxPoint x="1230" y="-590" />
            </Array>
          </mxGeometry>
        </mxCell>
        <mxCell id="IVsyOkYPATL-U6N8hX0K-81" style="edgeStyle=orthogonalEdgeStyle;rounded=0;orthogonalLoop=1;jettySize=auto;html=1;entryX=0;entryY=0.5;entryDx=0;entryDy=0;" edge="1" parent="1" source="IVsyOkYPATL-U6N8hX0K-77" target="IVsyOkYPATL-U6N8hX0K-78">
          <mxGeometry relative="1" as="geometry">
            <Array as="points">
              <mxPoint x="1230" y="-430" />
            </Array>
          </mxGeometry>
        </mxCell>
        <mxCell id="IVsyOkYPATL-U6N8hX0K-77" value="&lt;b&gt;&lt;font style=&quot;font-size: 20px&quot;&gt;验证码为空&lt;/font&gt;&lt;/b&gt;" style="rounded=1;whiteSpace=wrap;html=1;" vertex="1" parent="1">
          <mxGeometry x="1160" y="-530" width="110" height="40" as="geometry" />
        </mxCell>
        <mxCell id="IVsyOkYPATL-U6N8hX0K-78" value="&lt;b&gt;&lt;font style=&quot;font-size: 20px&quot;&gt;密码正确&lt;/font&gt;&lt;/b&gt;" style="rounded=1;whiteSpace=wrap;html=1;" vertex="1" parent="1">
          <mxGeometry x="1310" y="-455" width="120" height="50" as="geometry" />
        </mxCell>
        <mxCell id="IVsyOkYPATL-U6N8hX0K-79" value="&lt;span style=&quot;font-size: 20px&quot;&gt;&lt;b&gt;密码错误&lt;/b&gt;&lt;/span&gt;" style="rounded=1;whiteSpace=wrap;html=1;" vertex="1" parent="1">
          <mxGeometry x="1310" y="-535" width="120" height="50" as="geometry" />
        </mxCell>
        <mxCell id="IVsyOkYPATL-U6N8hX0K-80" value="&lt;span style=&quot;font-size: 20px&quot;&gt;&lt;b&gt;密码为空&lt;/b&gt;&lt;/span&gt;" style="rounded=1;whiteSpace=wrap;html=1;" vertex="1" parent="1">
          <mxGeometry x="1310" y="-615" width="120" height="50" as="geometry" />
        </mxCell>
        <mxCell id="IVsyOkYPATL-U6N8hX0K-103" style="edgeStyle=orthogonalEdgeStyle;rounded=0;orthogonalLoop=1;jettySize=auto;html=1;entryX=0;entryY=0.5;entryDx=0;entryDy=0;" edge="1" parent="1" source="IVsyOkYPATL-U6N8hX0K-106" target="IVsyOkYPATL-U6N8hX0K-108">
          <mxGeometry relative="1" as="geometry" />
        </mxCell>
        <mxCell id="IVsyOkYPATL-U6N8hX0K-104" style="edgeStyle=orthogonalEdgeStyle;rounded=0;orthogonalLoop=1;jettySize=auto;html=1;entryX=0;entryY=0.5;entryDx=0;entryDy=0;" edge="1" parent="1" source="IVsyOkYPATL-U6N8hX0K-106" target="IVsyOkYPATL-U6N8hX0K-109">
          <mxGeometry relative="1" as="geometry">
            <Array as="points">
              <mxPoint x="1230" y="-350" />
            </Array>
          </mxGeometry>
        </mxCell>
        <mxCell id="IVsyOkYPATL-U6N8hX0K-105" style="edgeStyle=orthogonalEdgeStyle;rounded=0;orthogonalLoop=1;jettySize=auto;html=1;entryX=0;entryY=0.5;entryDx=0;entryDy=0;" edge="1" parent="1" source="IVsyOkYPATL-U6N8hX0K-106" target="IVsyOkYPATL-U6N8hX0K-107">
          <mxGeometry relative="1" as="geometry">
            <Array as="points">
              <mxPoint x="1230" y="-190" />
            </Array>
          </mxGeometry>
        </mxCell>
        <mxCell id="IVsyOkYPATL-U6N8hX0K-106" value="&lt;b&gt;&lt;font style=&quot;font-size: 20px&quot;&gt;验证码错误&lt;/font&gt;&lt;/b&gt;" style="rounded=1;whiteSpace=wrap;html=1;" vertex="1" parent="1">
          <mxGeometry x="1160" y="-290" width="110" height="40" as="geometry" />
        </mxCell>
        <mxCell id="IVsyOkYPATL-U6N8hX0K-107" value="&lt;b&gt;&lt;font style=&quot;font-size: 20px&quot;&gt;密码正确&lt;/font&gt;&lt;/b&gt;" style="rounded=1;whiteSpace=wrap;html=1;" vertex="1" parent="1">
          <mxGeometry x="1310" y="-215" width="120" height="50" as="geometry" />
        </mxCell>
        <mxCell id="IVsyOkYPATL-U6N8hX0K-108" value="&lt;span style=&quot;font-size: 20px&quot;&gt;&lt;b&gt;密码错误&lt;/b&gt;&lt;/span&gt;" style="rounded=1;whiteSpace=wrap;html=1;" vertex="1" parent="1">
          <mxGeometry x="1310" y="-295" width="120" height="50" as="geometry" />
        </mxCell>
        <mxCell id="IVsyOkYPATL-U6N8hX0K-109" value="&lt;span style=&quot;font-size: 20px&quot;&gt;&lt;b&gt;密码为空&lt;/b&gt;&lt;/span&gt;" style="rounded=1;whiteSpace=wrap;html=1;" vertex="1" parent="1">
          <mxGeometry x="1310" y="-375" width="120" height="50" as="geometry" />
        </mxCell>
        <mxCell id="IVsyOkYPATL-U6N8hX0K-110" style="edgeStyle=orthogonalEdgeStyle;rounded=0;orthogonalLoop=1;jettySize=auto;html=1;entryX=0;entryY=0.5;entryDx=0;entryDy=0;" edge="1" parent="1" source="IVsyOkYPATL-U6N8hX0K-113" target="IVsyOkYPATL-U6N8hX0K-115">
          <mxGeometry relative="1" as="geometry" />
        </mxCell>
        <mxCell id="IVsyOkYPATL-U6N8hX0K-111" style="edgeStyle=orthogonalEdgeStyle;rounded=0;orthogonalLoop=1;jettySize=auto;html=1;entryX=0;entryY=0.5;entryDx=0;entryDy=0;" edge="1" parent="1" source="IVsyOkYPATL-U6N8hX0K-113" target="IVsyOkYPATL-U6N8hX0K-116">
          <mxGeometry relative="1" as="geometry">
            <Array as="points">
              <mxPoint x="1230" y="-120" />
            </Array>
          </mxGeometry>
        </mxCell>
        <mxCell id="IVsyOkYPATL-U6N8hX0K-112" style="edgeStyle=orthogonalEdgeStyle;rounded=0;orthogonalLoop=1;jettySize=auto;html=1;entryX=0;entryY=0.5;entryDx=0;entryDy=0;" edge="1" parent="1" source="IVsyOkYPATL-U6N8hX0K-113" target="IVsyOkYPATL-U6N8hX0K-114">
          <mxGeometry relative="1" as="geometry">
            <Array as="points">
              <mxPoint x="1230" y="40" />
            </Array>
          </mxGeometry>
        </mxCell>
        <mxCell id="IVsyOkYPATL-U6N8hX0K-113" value="&lt;b&gt;&lt;font style=&quot;font-size: 20px&quot;&gt;验证码有效&lt;/font&gt;&lt;/b&gt;" style="rounded=1;whiteSpace=wrap;html=1;" vertex="1" parent="1">
          <mxGeometry x="1160" y="-60" width="110" height="40" as="geometry" />
        </mxCell>
        <mxCell id="IVsyOkYPATL-U6N8hX0K-114" value="&lt;b&gt;&lt;font style=&quot;font-size: 20px&quot;&gt;密码正确&lt;/font&gt;&lt;/b&gt;" style="rounded=1;whiteSpace=wrap;html=1;" vertex="1" parent="1">
          <mxGeometry x="1310" y="15" width="120" height="50" as="geometry" />
        </mxCell>
        <mxCell id="IVsyOkYPATL-U6N8hX0K-115" value="&lt;span style=&quot;font-size: 20px&quot;&gt;&lt;b&gt;密码错误&lt;/b&gt;&lt;/span&gt;" style="rounded=1;whiteSpace=wrap;html=1;" vertex="1" parent="1">
          <mxGeometry x="1310" y="-65" width="120" height="50" as="geometry" />
        </mxCell>
        <mxCell id="IVsyOkYPATL-U6N8hX0K-116" value="&lt;span style=&quot;font-size: 20px&quot;&gt;&lt;b&gt;密码为空&lt;/b&gt;&lt;/span&gt;" style="rounded=1;whiteSpace=wrap;html=1;" vertex="1" parent="1">
          <mxGeometry x="1310" y="-145" width="120" height="50" as="geometry" />
        </mxCell>
      </root>
    </mxGraphModel>
  </diagram>
</mxfile>
